<?xml version="1.0" encoding="UTF-8"?>
<svg width="319px" height="115px" viewBox="0 0 319 115" version="1.1" xmlns="http://www.w3.org/2000/svg" xmlns:xlink="http://www.w3.org/1999/xlink">
    <title>logo</title>
    <defs>
        <polygon id="path-1" points="0 0.131218182 37.9399636 0.131218182 37.9399636 23.9414 0 23.9414"></polygon>
        <polygon id="path-3" points="0.1288 0.13084898 33.9869818 0.13084898 33.9869818 54 0.1288 54"></polygon>
    </defs>
    <g id="Design" stroke="none" stroke-width="1" fill="none" fill-rule="evenodd">
        <g id="Desktop-HD" transform="translate(-562.000000, -6110.000000)">
            <g id="footer" transform="translate(0.000000, 5870.000000)">
                <g id="logo" transform="translate(562.000000, 240.000000)">
                    <path d="M248.386722,55.5194329 L225.649188,36.118064 C224.104379,34.8189929 222.388671,33.346309 220.843861,31.8739917 C215.352397,35.338548 213.464701,40.8818748 213.464701,45.9056465 C213.464701,56.0393547 220.500792,62.7952212 230.196622,62.7952212 C236.717656,62.7952212 243.496038,60.5432046 248.386722,55.5194329 L248.386722,55.5194329 Z M261,56.0393547 L261,66 L260.656568,66 L249.416474,56.3856637 C244.268442,62.0155219 236.631934,65.1337692 227.279174,65.1337692 C215.180772,65.1337692 206,58.7242117 206,48.330726 C206,40.4488511 211.405742,34.5588487 219.985735,31.0077609 C215.867455,26.7635053 212.521216,21.826815 212.521216,15.5905035 C212.521216,6.49608898 219.899832,0 228.909705,0 C237.489698,0 244.868858,5.80292105 244.868858,13.6853459 C244.868858,21.826815 237.489698,26.0710706 231.397817,27.8896969 L230.453969,27.0238328 C235.85953,24.511672 239.20595,20.354681 239.20595,14.2912491 C239.20595,6.58262039 234.82996,1.21253972 228.480369,1.21253972 C221.530363,1.21253972 218.269845,7.10254217 218.269845,12.2991934 C218.269845,19.4017355 224.619436,24.9450623 228.909705,28.5826815 L252.848435,49.0233439 C254.393244,45.5587876 255.337274,41.3147152 255.337274,36.2913102 C255.337274,31.0077609 253.449396,27.5432046 252.505547,25.7242117 L256.709913,24.0788316 L257.052982,24.0788316 L257.052982,34.5588487 C257.052982,40.3623197 255.937508,45.5587876 253.792465,49.8895747 L261,56.0393547 Z" id="Fill-1" fill="#F8DA83"></path>
                    <path d="M48.652301,46.2419133 C46.9752814,41.9690278 45.6648424,38.962705 44.6166369,36.7997801 C44.092352,35.7448914 43.4112734,34.6374049 42.7820951,33.8984697 C42.1006522,33.107853 41.5767316,32.8441309 41,32.63264 L41.1050755,32.1051956 C41.9957588,32.1579767 43.8829294,32.2107578 45.559949,32.2107578 C47.3944908,32.2107578 49.8580287,32.0527811 50.8539697,32 L50.8539697,32.5804087 C50.2247914,32.7383854 49.5961595,33.0021076 49.1243213,33.4767708 C48.652301,33.9514341 48.4426963,34.5318428 48.4426963,35.2702282 C48.4426963,36.2199212 48.7047477,37.2744433 49.1764038,38.5932374 C50.0150046,40.8087602 51.0109456,43.2878219 51.9021752,45.5035279 C52.8454874,47.9296252 53.5272944,49.8814258 53.8936929,51.3054156 C56.986227,44.7649592 58.7683221,40.3342802 58.7683221,36.9583066 C58.3491127,35.5867314 57.929357,34.5318428 57.4052543,33.7934573 C57.0386737,33.2658297 56.5145709,32.7911665 55.8334923,32.5804087 L55.8853927,32.0527811 C56.986227,32.1051956 58.8207688,32.2107578 60.078579,32.2107578 C61.4414647,32.2107578 62.9615084,32.1051956 64.3243941,32.0527811 L64.3764766,32.63264 C63.7478447,32.7911665 63.3286353,32.9493265 62.8564329,33.3186108 C62.3323301,33.6877119 62.0181963,34.4260973 62.0181963,35.1650325 C62.0181963,36.1141758 62.3847768,37.3801888 62.8043504,38.5932374 C63.5380579,40.6504169 64.48137,43.0768808 65.4248643,45.5035279 C66.3683585,47.9296252 66.9971726,49.7234491 67.4167461,51.3054156 C70.1421534,45.0812792 72.6577738,39.5957115 72.6577738,36.4308623 C72.6577738,35.4287547 72.4483512,34.6374049 71.9240663,33.8984697 C71.504857,33.3186108 70.9283075,32.8441309 70.1421534,32.5804087 L70.1946001,32.0527811 C71.3999636,32.1051956 73.44411,32.2107578 74.7024666,32.2107578 C76.064806,32.2107578 77.6372964,32.1051956 78.9475533,32.0527811 L79,32.63264 C78.1613992,33.107853 77.4276917,33.7934573 76.5889088,34.848346 C75.4359919,36.3251168 74.2302642,38.6460185 72.343822,42.9716851 L68.0980069,52.6242097 C67.5212753,53.7320627 66.8926434,55.1564189 66.4209873,56 L65.8967024,55.9475854 C64.7958681,52.4132686 63.2760065,48.7735728 62.2802477,46.0837533 C61.3888359,43.6043251 60.4977884,41.4415834 59.9216031,39.4373683 C59.3448715,41.4943645 57.8774566,45.1868414 56.5670176,48.1409328 L54.5749536,52.6242097 C54.051033,53.6266838 53.3695901,55.1564189 52.897934,56 L52.3740134,55.9475854 C51.2205502,52.4132686 49.7531353,49.037295 48.652301,46.2419133" id="Fill-3" fill="#F8DA83"></path>
                    <path d="M82.6957625,24.2146552 C82.6957625,22.5037395 83.9363866,21 85.769595,21 C87.1179446,21 88.0342678,21.9852583 88.0342678,23.1261691 C88.0342678,24.3186037 87.2254828,25.0444412 86.200872,25.6148065 C85.3381306,26.0814035 84.4216201,26.4961164 83.6667916,27.0145976 L83.3970092,26.9111896 C82.9653575,26.1332877 82.6957625,25.1483897 82.6957625,24.2146552 M82.5342678,53.8219468 C83.451153,52.4740399 83.720748,50.814648 83.720748,45.3700554 C83.720748,40.6518409 83.5045475,39.4594063 83.2890963,38.4222639 C82.9117757,36.7108077 82.210529,36.0889185 81.0785673,36.0889185 C80.7010594,36.0889185 80.3233641,36.1408027 80.1616821,36.1923265 L80,35.6223215 C80.8625541,35.2072483 82.3725858,34.585179 83.2351398,34.0148137 C84.529533,33.1850277 86.1469156,32.1999496 86.6327111,32.1999496 C86.9021187,32.1999496 87.0636134,32.3037178 87.1719011,32.5110743 C87.3873522,32.9257871 87.3873522,33.7035089 87.3873522,35.1038404 C87.3873522,36.5034512 87.2794393,39.3035737 87.2794393,44.6442179 L87.2794393,45.8370127 C87.2794393,48.1699978 87.3873522,51.5404856 88.3038628,53.2000576 C88.8971966,54.2889041 89.759938,54.9628575 91,55.4294545 L90.9460435,56 C89.5444868,55.9479357 87.009657,55.8441674 85.5001873,55.8441674 C84.0439248,55.8441674 81.671339,55.9479357 80.3773206,56 L80.3233641,55.4294545 C81.1321491,55.170214 81.9411214,54.6517328 82.5342678,53.8219468" id="Fill-5" fill="#F8DA83"></path>
                    <path d="M95.6426292,55.4047378 C95.0305254,54.394559 94.8264908,52.6926996 94.8264908,50.459702 C94.8264908,48.4921812 94.9284195,44.6105304 94.9284195,41.7392431 C94.9284195,39.9847318 94.9284195,36.9540107 94.8264908,35.0929023 C93.6021059,35.0929023 92.1733319,35.145739 91.1021059,35.2523361 L91,34.6138617 C92.6324541,33.8697139 94.1122811,32.8593504 95.285613,31.3174791 C96.3571935,29.934857 97.2243849,28.1803456 97.8368432,26 L98.4998227,26.1065971 C98.3977168,27.8079023 98.2959654,30.0412694 98.2959654,32.3276579 L98.2959654,32.8593504 C100.94877,32.8593504 103.602106,32.8593504 106,32.8061442 C106,33.6038677 105.847018,34.5612098 105.591931,35.1989452 C103.44877,35.0929023 100.847018,35.0929023 98.2959654,35.0929023 L98.2959654,42.3243266 C98.2959654,46.578236 98.3470184,49.8214124 98.7040346,51.5764779 C99.0612281,53.3309893 99.8777211,54.0755066 101.25491,54.0755066 C102.683507,54.0755066 104.112281,53.118534 105.132809,51.9485518 L105.744735,52.5334505 C104.877721,53.6502265 103.704035,54.8196544 102.275438,55.7771812 C101.203857,56.5215137 99.7242076,57 98.4998227,57 C97.2754379,57 96.2549103,56.4683075 95.6426292,55.4047378" id="Fill-7" fill="#F8DA83"></path>
                    <path d="M120.013391,57 C117.18943,57 114.827031,55.9807863 113.132619,54.1569008 C111.078522,51.9033723 110,48.6843122 110,44.4997204 C110,37.9011132 114.108195,32 120.013391,32 C121.708159,32 123.299804,32.3215332 124.686449,32.9118496 C126.586395,33.7165214 128.127013,34.950277 128.127013,36.4528157 C128.127013,37.6328892 127.202642,38.705785 126.021889,38.705785 C124.789395,38.705785 124.326942,37.7402533 123.094626,35.8088173 C122.016461,34.1459779 120.93794,33.287624 119.808034,33.0192137 C116.778183,33.7703899 114.108195,37.5790207 114.108195,44.339047 C114.108195,47.5042386 114.929977,50.1329824 116.264703,51.7963809 C117.445992,53.2983605 119.243528,54.1569008 121.348474,54.1569008 C124.378325,54.1569008 126.792108,52.3328288 128.435137,49.972309 L129,50.4013928 C127.510766,52.9762681 124.326942,57 120.013391,57" id="Fill-9" fill="#F8DA83"></path>
                    <path d="M131.263361,53.3224668 C131.884722,51.9574356 131.988373,50.54024 132.039838,49.3851434 C132.091843,48.230594 132.143668,46.4456935 132.143668,44.5557345 L132.143668,40.1985417 C132.143668,35.5788851 132.143668,30.3817714 132.091843,27.2318396 C132.039838,24.2918426 131.936547,22.7695884 131.470482,21.299681 C131.107886,20.1451317 130.175574,19.4622513 129.035962,19.4622513 C128.725191,19.4622513 128.414781,19.5149629 128.155655,19.5674922 L128,18.9900351 C128.932672,18.5701658 130.84876,17.6250039 132.039838,16.8374298 C133.17945,16.0498556 134.629653,15 135.044253,15 L135.510319,15.2624639 C135.61361,15.9453443 135.665435,17.8874678 135.665435,19.6721859 C135.665435,22.2970074 135.562144,29.541668 135.562144,36.7336169 C138.928436,34.1091601 141.517891,32.0614309 144.781252,32.0614309 C147.837133,32.0614309 149.701217,34.1091601 150.064172,37.4684793 C150.271113,39.41115 150.271113,41.563573 150.322938,43.9259305 C150.374943,46.4456935 150.426228,48.9652741 150.633888,50.4877107 C150.841009,51.9574356 151.047949,52.9553092 151.617845,53.7948654 C152.187202,54.7400273 152.860928,55.1073674 154,55.4223605 L153.948535,56 C152.342857,56 150.737179,55.8422298 148.872915,55.8422298 C147.215232,55.8422298 144.884542,55.9474707 143.74529,56 L143.693465,55.4223605 C144.832717,54.8449034 145.816674,53.8473947 146.231455,52.2198996 C146.749346,50.1205531 146.852636,47.0753151 146.852636,44.3983291 C146.852636,42.0359715 146.852636,39.7786724 146.28328,37.7309432 C145.713384,35.6835788 144.107706,34.8440226 142.087787,34.8440226 C139.964218,34.8440226 137.478233,36.2610359 135.562144,38.0459364 L135.562144,43.0332979 C135.562144,47.5482608 135.71726,50.434999 136.080215,51.9052712 C136.442271,53.3751785 137.426408,54.8449034 139.135916,55.4223605 L139.083911,56 C138.151779,56 135.251194,55.8422298 133.593691,55.8422298 C131.832717,55.8422298 129.346913,56 128.932672,56 L128.880847,55.4223605 C129.864804,55.0548381 130.74547,54.4775634 131.263361,53.3224668" id="Fill-11" fill="#F8DA83"></path>
                    <path d="M159.108156,41.7103032 C162.240389,41.7641717 166.913404,41.6027527 169.326629,41.2275374 C169.019043,37.2574875 167.272729,33.3413061 164.34585,33.0730822 C161.675888,33.8240719 159.570248,36.9355815 159.108156,41.7103032 M166.348545,54.2638921 C169.532518,54.2638921 171.791951,52.2791468 173.434963,49.972309 L174,50.4013928 C172.51078,52.8692767 169.481135,57 164.910709,57 C162.959575,57 161.059468,56.4635521 159.518865,55.3367879 C156.643013,53.244492 155,49.5967209 155,44.5535889 C155,37.9549816 159.056773,32 164.859325,32 C169.634928,32 172.562163,36.3452652 173.332197,41.2808467 C173.38358,41.5490706 173.434963,41.8172946 173.434963,41.9785272 C173.434963,42.193069 173.332197,42.3539289 173.178048,42.461293 L159.056773,42.8370675 L159.056773,43.8562812 C159.056773,50.8302901 162.189363,54.2638921 166.348545,54.2638921" id="Fill-13" fill="#F8DA83"></path>
                    <path d="M185.924617,55.9316921 C188.421745,55.7180677 190.546768,54.0619678 190.546768,51.604637 C190.546768,50.4830622 190.281163,49.8418177 189.643269,49.0940393 C188.68735,47.9720933 186.987221,47.3314056 184.809409,46.3694459 C182.259123,45.2480568 180.771625,44.4468259 179.549917,43.2714274 C178.434155,42.1494814 177.690683,40.8142822 177.690683,38.9976392 C177.690683,36.754304 178.646602,34.9380322 180.346731,33.709738 C181.887387,32.587792 184.012595,32 186.084275,32 C188.846455,32 191.290425,32.5341539 192.777738,33.0683079 C193.096501,34.4038783 193.043343,37.609173 193.309132,39.7459744 L192.777738,39.8525082 C191.183925,35.899435 188.262087,33.2284798 185.287461,33.0148553 C183.162253,33.3353848 181.14373,34.9380322 181.14373,37.5555349 C181.14373,39.5854312 182.099834,40.5472053 183.587147,41.4551556 C184.383961,41.935857 185.659012,42.4165584 186.668643,42.8441785 C188.846455,43.6988619 190.705873,44.4997216 192.087424,45.7287582 C193.309132,46.7972516 194,48.1857178 194,50.0023608 C194,51.978619 193.150028,53.7414383 191.661976,54.9702893 C190.227821,56.1453166 187.996482,57 185.287461,57 C182.577886,57 179.655864,56.4658461 178.115208,55.6646152 C177.583998,54.4895879 177.318394,51.33756 177,48.8804149 L177.53084,48.7735098 C179.018707,52.4593204 182.684201,55.5575246 185.924617,55.9316921" id="Fill-15" fill="#F8DA83"></path>
                    <g id="Group-19" transform="translate(0.000000, 78.000000)">
                        <mask id="mask-2" fill="white">
                            <use xlink:href="#path-1"></use>
                        </mask>
                        <g id="Clip-18"></g>
                        <path d="M7.64014545,14.2604909 C5.96578182,10.0215818 4.6576,7.03867273 3.61087273,4.89303636 C3.0876,3.84649091 2.40741818,2.74794545 1.77923636,2.01467273 C1.09905455,1.23030909 0.575781818,0.968672727 -3.63636364e-05,0.758854545 L0.104872727,0.235581818 C0.994145455,0.287945455 2.87832727,0.340309091 4.55269091,0.340309091 C6.38432727,0.340309091 8.84396364,0.183581818 9.83832727,0.131218182 L9.83832727,0.706854545 C9.21014545,0.863763636 8.58250909,1.1254 8.1116,1.59630909 C7.64014545,2.06721818 7.43105455,2.64303636 7.43105455,3.37558182 C7.43105455,4.31776364 7.69250909,5.36394545 8.16341818,6.67230909 C9.00087273,8.87030909 9.99505455,11.3297636 10.8850545,13.5279455 C11.8266909,15.9348545 12.5074182,17.8712182 12.8734182,19.2839455 C15.9608727,12.7952182 17.7401455,8.39958182 17.7401455,5.05030909 C17.3216,3.68958182 16.9026909,2.64303636 16.3792364,1.91030909 C16.0134182,1.38703636 15.4899636,0.916127273 14.8099636,0.706854545 L14.8617818,0.183581818 C15.9608727,0.235581818 17.7925091,0.340309091 19.0483273,0.340309091 C20.4090545,0.340309091 21.9266909,0.235581818 23.2874182,0.183581818 L23.3394182,0.758854545 C22.7117818,0.916127273 22.2932364,1.07303636 21.8217818,1.4394 C21.2985091,1.80558182 20.9848727,2.53812727 20.9848727,3.27121818 C20.9848727,4.21285455 21.3508727,5.46885455 21.7699636,6.67230909 C22.5023273,8.71303636 23.4443273,11.1204909 24.3861455,13.5279455 C25.3281455,15.9348545 25.9559636,17.7144909 26.3748727,19.2839455 C29.0959636,13.1090364 31.6076,7.66685455 31.6076,4.52703636 C31.6076,3.53285455 31.3985091,2.74794545 30.8750545,2.01467273 C30.4566909,1.4394 29.8808727,0.968672727 29.0959636,0.706854545 L29.1483273,0.183581818 C30.3517818,0.235581818 32.3926909,0.340309091 33.6490545,0.340309091 C35.0092364,0.340309091 36.5792364,0.235581818 37.8874182,0.183581818 L37.9399636,0.758854545 C37.1025091,1.23030909 36.3701455,1.91030909 35.5325091,2.95703636 C34.3816,4.42230909 33.1776,6.72467273 31.2941455,11.0161273 L27.0550545,20.5923091 C26.4792364,21.6914 25.8516,23.1044909 25.3806909,23.9414 L24.8572364,23.8894 C23.7581455,20.3830364 22.2408727,16.7721273 21.2465091,14.1037636 C20.3566909,11.6437636 19.4668727,9.49812727 18.8916,7.50958182 C18.3157818,9.55067273 16.8506909,13.2137636 15.5425091,16.1444909 L13.5534182,20.5923091 C13.0303273,21.5870364 12.3499636,23.1044909 11.8790545,23.9414 L11.3559636,23.8894 C10.2045091,20.3830364 8.73923636,17.0339455 7.64014545,14.2604909" id="Fill-17" fill="#F8DA83" mask="url(#mask-2)"></path>
                    </g>
                    <path d="M41.6959499,70.2144751 C41.6959499,68.5035593 42.9363866,67 44.7697823,67 C46.1179446,67 47.0342678,67.9850782 47.0342678,69.1259889 C47.0342678,70.3184235 46.2254828,71.0442611 45.200872,71.6146264 C44.3381306,72.0812234 43.4216201,72.4959363 42.6667916,73.0145976 L42.3971966,72.9111896 C41.9653575,72.1332877 41.6959499,71.1482095 41.6959499,70.2144751 M41.5342678,99.8219468 C42.451153,98.4740399 42.7209354,96.8144679 42.7209354,91.3700554 C42.7209354,86.6516608 42.5047348,85.4592262 42.2890963,84.4220837 C41.9119631,82.7108077 41.210529,82.0887384 40.0785673,82.0887384 C39.7010594,82.0887384 39.3233641,82.1408027 39.1618694,82.1921463 L39,81.6221414 C39.8625541,81.2072483 41.3725858,80.585179 42.2351398,80.0146336 C43.5297203,79.1850277 45.1469156,78.1997694 45.6327111,78.1997694 C45.9021187,78.1997694 46.0638008,78.3037178 46.1719011,78.5110743 C46.3875396,78.925607 46.3875396,79.7035089 46.3875396,81.1036602 C46.3875396,82.5034512 46.2794393,85.3033936 46.2794393,90.6440377 L46.2794393,91.8370127 C46.2794393,94.1699978 46.3875396,97.5404856 47.3040501,99.1998775 C47.8971966,100.288724 48.759938,100.962858 50,101.429455 L49.9460435,102 C48.5444868,101.947756 46.009657,101.843987 44.5001873,101.843987 C43.0439248,101.843987 40.671339,101.947756 39.3773206,102 L39.3233641,101.429455 C40.1321491,101.170034 40.9411214,100.651553 41.5342678,99.8219468" id="Fill-20" fill="#F8DA83"></path>
                    <path d="M60.9728481,89.1589948 C63.1990003,85.4978149 64.9072878,82.5581566 66.2534839,79.9802445 C64.4414076,79.9802445 62.3706688,79.9802445 60.6620214,80.1346898 C59.6786363,80.2378923 59.0571629,80.3407365 58.4360492,80.5987427 C56.9862442,81.6300509 55.2777767,83.6412452 54.190423,85.9102665 L53.6727383,85.8074224 C53.7765271,84.9821608 53.8797762,83.5896439 53.9315806,82.4037112 C53.983565,81.1661772 54.0873537,79.8250824 54.2424073,79.1548037 C54.9151456,79.0516012 55.9506949,79 56.5721684,79 C58.850125,79 61.5939618,79.0516012 63.8717386,79.0516012 C66.3054682,79.0516012 69.3081475,79.0516012 71.2752774,79 L71.3790662,79.5672553 C69.1011096,82.6613591 66.4087174,86.8899734 63.9755273,90.8611191 C61.8009997,94.4192757 59.4196141,98.3382826 57.8663801,101.071357 L61.3869239,101.071357 C62.9919624,101.071357 64.7522343,100.916911 65.7877835,100.659084 C66.5643106,100.298234 67.4442667,99.7309787 68.5834248,98.5962888 C69.7740277,97.4103561 70.9131859,95.759833 71.4823153,94.522299 L72,94.6255015 C71.7411576,96.5333141 71.3790662,100.040407 70.8093971,102 C69.5668099,102 65.839588,101.94822 62.3185046,101.94822 L57.5039289,101.94822 C56.1575529,101.94822 53.983565,101.94822 53.0518044,102 L53,101.484167 C55.6404078,97.8226285 58.4360492,93.2845858 60.9728481,89.1589948" id="Fill-22" fill="#F8DA83"></path>
                    <path d="M88.9047355,97.3548618 C88.8018435,96.6323765 88.7507547,95.7551368 88.7507547,94.929183 C88.7507547,93.9486543 88.8018435,92.1421719 88.8018435,90.8001315 L86.1798825,91.4196865 C81.0899412,92.606614 79.9075758,93.5354981 79.9075758,95.7034923 C79.9075758,98.1806363 81.5011522,99.4710321 83.9176864,99.4710321 C86.0769904,99.4710321 87.7223701,98.5934339 88.9047355,97.3548618 M76,96.0131801 C76,94.7740701 76.3599436,93.6904317 77.028206,93.226169 C78.9302799,92.1939957 84.431968,91.0065303 88.8018435,89.767779 L88.8018435,88.6839612 C88.8018435,87.0325916 88.7507547,85.3806841 88.5446134,84.2455805 C88.1850271,82.0775863 87.0537504,80.7359046 84.5859488,80.7359046 C83.3006913,80.7359046 81.9638091,81.2519912 81.0384952,81.9228321 C81.0384952,82.5936729 81.192476,84.0902883 81.192476,84.8133116 C81.192476,85.4841525 81.1413873,85.89695 80.9870492,86.2582824 C80.729819,86.8772994 80.1646273,87.3422795 79.2904021,87.3422795 C78.1591254,87.3422795 77.1823654,86.6197941 77.1823654,85.535797 C77.1823654,84.2455805 78.4161769,83.0068292 80.4727675,81.4065661 C81.0899412,80.9423034 81.9125418,80.3227484 82.7864097,79.7551966 C84.431968,78.6713788 86.0255444,78 87.568032,78 C89.3673925,78 90.7042747,78.9294221 91.4756078,80.5807917 C91.9380861,81.6131442 92.1438702,82.6971413 92.2467623,84.2455805 C92.2982083,84.916242 92.2982083,85.8454848 92.2982083,86.4646812 C92.2982083,88.374632 92.1953163,90.3356894 92.1953163,91.8841286 C92.1953163,94.1032293 92.2467623,95.5483794 92.6579732,96.7356655 C93.0179168,97.8193039 93.7378039,98.2841047 94.7143852,98.2841047 C95.1255962,98.2841047 95.4857184,98.2324601 95.8456619,98.1289918 L96,98.5934339 C95.2801129,99.0582346 94.1488362,99.9872981 93.2235223,100.709604 C92.4007431,101.329159 91.6295886,101.896532 91.0640396,101.896532 C90.3957771,101.896532 89.572998,100.193518 89.110341,98.3353905 C87.1568211,99.9872981 84.8431789,102 81.706579,102 C78.519069,102 76,99.78072 76,96.0131801" id="Fill-24" fill="#F8DA83"></path>
                    <path d="M100.603075,99.64687 C101.399889,98.182999 101.665679,96.2482477 101.665679,91.9084097 C101.665679,87.1500114 101.453232,85.3204451 101.240785,84.2745894 C100.86868,82.3921581 99.9659186,81.9216411 99.0626038,81.9216411 C98.6904987,81.9216411 98.3721051,81.9741428 98.1592891,82.0259178 L98,81.4511241 C98.8501569,81.0848838 100.337655,80.3529483 101.081127,79.8824313 C102.568993,78.8890773 104.056307,78 104.534358,78 C104.640859,78 104.853121,78.05232 104.906279,78.2090985 C105.172068,78.9408523 105.172068,81.1372038 105.172068,82.8101733 L105.172068,84.9542048 C106.128172,83.2289153 107.668643,81.2416623 109.209298,79.7252895 C110.431376,78.5230187 111.334321,78.1565968 112.184478,78.1565968 C113.83145,78.1565968 115,80.0915298 115,81.5554008 C115,82.4969798 114.309501,83.1240936 113.246897,83.1240936 C112.077978,83.1240936 110.803112,82.6012565 109.103352,82.6012565 C108.784404,82.6012565 108.412484,82.6535766 108.146694,82.7583983 C107.190591,83.4378321 105.224857,86.0000606 105.172068,88.8235258 L105.172068,91.0716524 C105.172068,93.4771024 105.224857,96.4052078 105.915725,98.4963742 C106.340619,99.7516918 107.615485,101.058603 110.112613,101.372341 L110.059271,102 C108.359141,102 105.331173,101.842858 103.578255,101.842858 C101.824783,101.842858 100.125023,101.947498 98.3721051,102 L98.3189473,101.424661 C99.0626038,101.215744 100.125023,100.535584 100.603075,99.64687" id="Fill-26" fill="#F8DA83"></path>
                    <path d="M130.390626,78.7721432 C130.072548,78.7721432 129.542785,78.8241402 129.224707,78.9277731 C126.258185,79.9671716 123.238099,83.6567925 123.238099,89.6328372 C123.238099,91.970897 123.715216,94.1015104 124.986793,96.0244969 C126.152159,97.7913118 127.741446,99.1939671 130.390626,99.4539522 C132.085755,99.2981417 134.099146,98.3109208 135.794275,96.5957418 C135.741262,95.5565238 135.688617,93.9975164 135.688617,92.2307015 C135.688617,88.4894447 135.741262,86.4108283 135.741262,83.9685939 L135.741262,81.4225461 C134.416672,79.8635387 132.562872,78.7721432 130.390626,78.7721432 M135.847472,97.8429477 C133.834265,99.6101237 130.761165,102 128.218196,102 C125.728423,102 123.50298,100.805152 121.860864,98.8307103 C120.059709,96.6999163 119,93.7377119 119,90.4640671 C119,85.9953939 120.801339,83.1891805 122.178574,81.6823506 C124.24461,79.4473821 127.211684,77.8369193 130.337429,77.8369193 C132.509859,77.8369193 134.311199,78.6679686 135.741262,79.5515567 C135.741262,77.4731208 135.741262,74.9787089 135.688617,72.900273 C135.582591,69.3146462 135.370723,67.5478313 134.787948,66.6126073 C134.099146,65.5212119 133.039622,65.4692148 131.662019,65.4692148 L131.503348,64.8974283 C132.774741,64.4819939 134.364212,63.6504029 135.423736,62.9229865 C136.96001,61.831591 138.231587,61 138.761533,61 L139.185085,61.2598045 C139.238099,61.6759611 139.344309,62.9229865 139.344309,64.1701924 C139.344309,70.4060417 139.238099,79.6557312 139.238099,87.9696552 L139.238099,89.5288432 C139.238099,92.802488 139.344309,95.1929059 139.767861,96.6479193 C140.032926,97.5313268 140.456662,98.2069268 142.045949,98.2069268 C142.257817,98.2069268 142.628725,98.1547492 142.840777,98.1025717 L143,98.6743582 C141.887278,99.1419701 140.880583,99.7137567 139.820874,100.33736 C139.079428,100.805152 137.172062,101.948003 136.695313,101.948003 L136.377235,101.792373 C136.165367,101.116954 135.953683,100.545348 135.847472,97.8429477" id="Fill-28" fill="#F8DA83"></path>
                    <path d="M154.924986,101.931514 C157.421561,101.718077 159.546768,100.061804 159.546768,97.6044915 C159.546768,96.4831106 159.281163,95.8416852 158.643823,95.0939124 C157.68735,93.9719748 155.98759,93.3312918 153.809224,92.3693393 C151.259492,91.2479584 149.772179,90.4465479 148.549917,89.2711581 C147.434709,88.1492205 146.690499,86.8142168 146.690499,84.9975872 C146.690499,82.7542687 147.646971,80.938196 149.346731,79.7097253 C150.887387,78.5877877 153.01241,78 155.084275,78 C157.847008,78 160.290425,78.5343356 161.778292,79.0682999 C162.096501,80.4038604 162.043712,83.6089458 162.309501,85.7459169 L161.778292,85.8524499 C160.184478,81.8994061 157.262456,79.2284707 154.287461,79.0148478 C152.162253,79.3355605 150.14373,80.938196 150.14373,83.5554937 C150.14373,85.5853749 151.100203,86.5471418 152.587701,87.4550854 C153.384515,87.9357832 154.659566,88.4164811 155.668643,88.8439124 C157.847008,89.6989607 159.706427,90.4996288 161.087424,91.7286563 C162.309501,92.7969562 163,94.1855976 163,96.0022272 C163,97.9784707 162.149843,99.7410913 160.66253,100.970119 C159.227821,102.144952 156.997036,103 154.287461,103 C151.578255,103 148.656417,102.465664 147.115762,101.664439 C146.584552,100.489421 146.318947,97.3372309 146,94.8802895 L146.53121,94.7733853 C148.018707,98.4591685 151.684201,101.55735 154.924986,101.931514" id="Fill-30" fill="#F8DA83"></path>
                    <g id="Group-34" transform="translate(157.000000, 60.000000)">
                        <mask id="mask-4" fill="white">
                            <use xlink:href="#path-3"></use>
                        </mask>
                        <g id="Clip-33"></g>
                        <path d="M3.05934545,53.6297878 C1.85552727,53.3124 0.1288,52.4140531 0.1288,50.5637265 C0.1288,48.8193796 1.59370909,47.3916857 3.32098182,47.3916857 C4.94298182,47.3916857 5.46625455,48.8193796 5.78043636,50.2992367 C5.98970909,51.250849 6.30370909,52.3611551 6.82716364,52.9955633 C8.92025455,51.250849 10.1237091,49.3479918 11.2753455,45.9116449 C12.5837091,41.9466857 13.2113455,37.9817265 14.3104364,29.6818898 L15.4095273,21.4882163 C14.0486182,21.4882163 12.4264364,21.5407469 11.2228,21.5936449 L11.1704364,20.9596041 C12.5837091,20.4308082 14.6768,19.1621755 15.9848,17.8404612 L16.2988,15.6200327 C16.8220727,11.9191959 17.1886182,9.96362449 17.7644364,8.37760408 C18.6013455,6.10446122 19.7528,4.09525714 21.7937091,2.50978776 C23.7298909,0.976297959 25.9278909,0.13084898 27.8120727,0.13084898 C29.2769818,0.13084898 30.3760727,0.395155102 31.4748,0.870685714 C33.0448,1.55799184 33.9869818,2.66811429 33.9869818,4.09525714 C33.9869818,5.94558367 32.6786182,7.10878776 31.0562545,7.10878776 C29.3813455,7.10878776 28.8582545,6.10446122 28.4397091,4.04272653 C28.1778909,2.66811429 27.9164364,1.45237959 27.6022545,1.13517551 C25.2997091,2.50978776 23.8869818,5.57584898 22.9448,9.32903265 C22.2122545,12.3954612 21.7413455,15.5144204 21.3751636,18.3161755 C22.9448,18.3161755 24.9337091,18.3161755 26.8173455,18.2632776 C26.6604364,19.2147061 26.2938909,20.6422163 25.8229818,21.5407469 C23.5729818,21.4882163 22.2122545,21.4882163 20.9564364,21.4882163 L19.9097091,29.6818898 C18.8629818,37.9817265 18.2877091,42.7926857 15.7755273,47.4976653 C13.6822545,51.4620735 10.1762545,54.0000735 6.1468,54.0000735 C5.1528,54.0000735 4.10607273,53.8939102 3.05934545,53.6297878" id="Fill-32" fill="#F8DA83" mask="url(#mask-4)"></path>
                    </g>
                    <path d="M196.751653,82.4680544 C196.751653,81.0855208 196.069076,79.6490239 194.86203,78.7979923 C192.184972,80.9254788 190.45309,85.0215188 189.665838,89.1171892 C195.229487,87.5746136 196.751653,85.1810064 196.751653,82.4680544 M184.627206,100.659617 C183.577537,99.2763441 183,97.3613844 183,95.3935702 C183,94.2230091 183.157195,92.7340272 183.472315,91.4575722 C185.046819,84.7023589 191.135302,78 196.174299,78 C199.270787,78 202,79.5957997 202,81.7234711 C202,83.7977335 200.740433,85.5533905 196.016921,87.6806922 C194.179817,88.5319086 192.027776,89.2764919 189.508461,90.0214449 C189.298563,91.4041633 189.193523,92.6808031 189.193523,93.9044036 C189.193523,97.0425941 190.55813,99.3295682 193.024743,99.7549916 C194.967252,99.7549916 197.381163,98.2658249 200.005701,94.4362752 L200.792953,95.0210014 C198.32634,98.8509207 193.81236,103 189.560981,103 C187.356237,103 185.729213,102.095375 184.627206,100.659617" id="Fill-35" fill="#F8DA83"></path>
                    <path d="M204.703386,101.936072 C203.745,101.350791 203,100.552984 203,99.3295682 C203,97.8934409 204.117778,96.5641314 205.661217,96.5641314 C207.045079,96.5641314 207.73664,97.627505 208.535079,99.0638172 C209.227195,100.340272 209.972195,101.670136 210.983465,102.148599 C212.686666,101.723545 213.857328,100.44672 213.857328,98.4785366 C213.857328,97.627505 213.644497,96.8827369 213.218466,96.1381536 C212.580158,95.0210014 211.515635,93.9576277 210.451111,92.8938844 C209.440026,91.8299563 208.268995,90.7129889 207.523994,89.4363491 C206.832248,88.2125639 206.300079,87.0959661 206.300079,85.4469422 C206.300079,83.3192708 207.257725,81.5109442 208.854418,80.1808955 C210.451111,78.8512164 212.580158,78 215.028359,78 C217.26336,78 219.126137,78.3725689 220.350053,79.0110736 C221.308439,79.4897211 222,80.2343044 222,81.4041263 C222,82.7873992 220.882222,84.1170783 219.445661,84.1170783 C217.955106,84.1170783 217.156852,82.9472564 216.199021,81.5109442 C215.454021,80.4470161 214.868413,79.4897211 213.910582,78.8512164 C212.846058,79.436497 211.99455,80.9788878 211.99455,82.8406233 C211.99455,84.01063 212.260635,84.8084375 212.792804,85.6596539 C213.431666,86.723582 214.389497,87.5746136 215.454021,88.5851327 C216.73119,89.8083636 217.902222,90.9255158 218.647222,92.2553797 C219.23283,93.2658989 219.605053,94.3830511 219.605053,95.7661391 C219.605053,97.9998891 218.593968,99.7023219 216.944021,100.978777 C215.347328,102.202008 213.005635,103 210.397857,103 C208.428756,103 206.086693,102.733879 204.703386,101.936072" id="Fill-37" fill="#F8DA83"></path>
                    <path d="M224.930321,100.240607 C224.930321,99.2849784 225.033371,98.1704166 225.291894,96.7379881 C225.653646,94.7743681 226.428854,91.0067989 226.997423,87.769315 C227.358636,85.8062481 227.720747,83.4712919 227.927206,81.9322931 C226.531903,81.9322931 225.13696,81.9850251 224.051704,82.0381258 L224,81.4016548 C226.170511,80.3932944 228.133844,78.9603128 229.890719,77.2620119 C231.854053,75.4049621 233.611287,73.1227378 234.799772,71 L235.471212,71.1594865 C235.057935,73.1760229 234.437841,76.5191551 234.076268,78.7482787 C236.556467,78.7482787 239.75999,78.7482787 241,78.695178 C240.845066,79.7562703 240.431969,81.2421683 240.018333,81.9850251 C238.62339,81.9850251 236.039782,81.9322931 233.559583,81.9322931 L232.422443,88.3532384 C231.854053,91.590538 231.286022,95.4113922 231.286022,97.2155257 C231.286022,98.7012394 231.647415,99.4446493 232.422443,99.6566834 C234.179498,98.9665585 235.988077,96.8969215 237.590018,94.8274688 L238.365047,95.4113922 C237.125037,97.2155257 235.5748,99.0729443 233.766221,100.505926 C231.905758,101.99164 229.632197,103 227.720747,103 C225.912168,103 224.930321,101.832153 224.930321,100.240607" id="Fill-39" fill="#F8DA83"></path>
                    <path d="M247.459231,70.7480715 C247.459231,68.0347842 249.004414,66 251.579421,66 C252.969997,66 254,67.0957925 254,68.4524361 C254,70.2263691 253.021533,71.2175673 251.3221,71.9479144 C250.086132,72.4696167 249.05595,72.9915003 248.231733,73.5132027 L247.870981,73.4086084 C247.61348,72.7306492 247.459231,71.8957079 247.459231,70.7480715 M244.265971,90.9915003 C244.781151,87.9653367 244.987116,86.1391972 244.987116,84.9389917 C244.987116,84.3654454 244.935401,83.8435618 244.832329,83.3737034 C244.574829,82.3825052 243.905398,81.8608028 242.926931,81.8608028 C242.617715,81.8608028 242.205965,81.9130093 242.050999,81.9652158 L242,81.391307 C243.287146,80.8172169 245.398867,79.8782251 247.20173,78.7305887 C248.334984,77.9998792 250.858634,76.7478298 251.47635,76.7478298 C251.631136,76.7478298 251.888279,76.8522427 251.888279,77.0608874 C251.888279,78.0520856 251.579421,79.617374 251.3221,81.078068 C250.703847,84.4694959 250.137131,87.8085359 249.570951,91.1477573 C249.313451,92.8174586 249.107128,94.2261274 249.107128,95.2171444 C249.107128,95.843441 249.2102,96.3129368 249.416165,96.7302262 C249.776916,97.4087293 250.601133,97.617374 251.47635,97.617374 C251.682314,97.617374 251.837101,97.617374 252.042887,97.5649862 L252.145601,98.1390763 C250.137131,98.9218111 248.489234,99.6521582 247.150015,100.330117 C245.862332,100.956414 243.596183,101.947612 242.772144,102 L242.360215,101.686942 C242.56618,99.1302745 243.493469,95.5303833 244.265971,90.9915003" id="Fill-41" fill="#F8DA83"></path>
                    <path d="M259.392707,83.7429053 C259.032666,82.3427136 258.10774,81.408892 257.131021,81.408892 C256.77098,81.408892 256.360041,81.460791 256.103047,81.51269 L256,80.9421614 C256.976718,80.4233517 258.930154,79.3340133 260.471937,78.4005521 C261.397399,77.8300236 262.219993,77.5188098 262.836491,77.5188098 C263.556037,77.5188098 263.967513,77.8300236 264.173072,78.6081481 C265.35517,83.068759 265.869336,91.0044402 266.229198,97.5914684 C267.66829,96.3466132 269.056305,94.9979601 270.495576,93.0791388 C271.934668,91.2116758 273.16838,89.1890565 273.93936,87.114358 C273.887747,85.9215821 273.16838,84.2096359 272.705648,83.01686 C272.243096,81.8756226 271.831978,80.8381832 271.831978,79.8012845 C271.831978,78.1933166 272.962642,77 274.761953,77 C276.766467,77 278,78.4005521 278,80.7868249 C278,85.0394793 272.191661,93.9086217 266.434757,98.8361433 C265.046564,100.028919 263.247609,101.273594 261.551345,102 L260.934846,101.636887 C260.677674,92.456531 260.163687,86.8550432 259.392707,83.7429053" id="Fill-43" fill="#F8DA83"></path>
                    <path d="M289.957596,95.7127302 C292.256345,92.9465541 294.501052,89.2764919 295.195803,85.4469422 L295.94441,81.4573505 C294.714807,81.1915995 293.110994,80.2875286 291.080228,80.2875286 C290.545561,80.2875286 290.118051,80.3407527 289.850997,80.3936072 C287.980129,83.2130074 286.269345,88.372421 285.521109,93.0531872 C285.307354,94.2766028 285.253869,95.3401613 285.253869,96.4040894 C285.253869,97.7339533 285.41451,98.9045144 285.78835,99.7023219 C286.910982,98.9045144 288.460938,97.4680175 289.957596,95.7127302 M279,97.2020817 C279,95.1808585 279.267426,93.425756 279.641265,92.1487466 C280.870868,87.6806922 283.703727,84.1170783 286.002105,82.2021186 C288.033614,80.5536492 291.293797,78 294.768293,78 C297.173641,78 299.258264,78.7451378 301.502971,78.7451378 C301.984524,78.7451378 302.519005,78.6917288 302.839359,78.5850958 L303,78.7979923 C301.770212,81.7234711 300.915377,84.9148858 300.27374,88.372421 L299.899901,90.4468683 C299.52569,92.4146825 299.204779,94.5423538 299.204779,95.8188088 C299.204779,96.6168011 299.311749,97.0958182 299.52569,97.5212416 C299.899901,98.3192339 300.754921,98.5317608 301.663613,98.5317608 C301.877554,98.5317608 302.037638,98.5317608 302.251764,98.4785366 L302.358363,99.0638172 C300.27374,100.074336 298.616627,100.606208 297.227312,101.297567 C296.158165,101.936072 293.752817,102.946591 292.897425,103 C292.683855,103 292.469915,102.840328 292.469915,102.680655 C292.84394,98.4253125 293.645661,94.5423538 293.966572,92.0960769 C292.042219,94.8616986 289.797326,97.7339533 286.804011,100.500129 C285.253869,101.882848 283.490157,102.946591 281.88653,102.946591 C279.801721,102.946591 279,99.5424647 279,97.2020817" id="Fill-45" fill="#F8DA83"></path>
                    <path d="M307.665408,91.8148764 L309.22331,83.3098842 C309.599394,81.2623894 310.029044,79.0049466 310.351562,76.9051017 C310.942658,73.3350734 311.425874,70.4474218 311.425874,68.4528245 C311.425874,66.8250433 310.888905,65.3026922 309.115804,65.3026922 C308.79366,65.3026922 308.417389,65.3552248 308.202751,65.4079398 L308.095058,64.7775486 C309.438135,64.1473397 312.446434,63.0974172 314.272914,61.995327 C315.454919,61.2604177 317.925874,60 318.570723,60 L319,60.3150132 C318.946247,61.4701833 318.785362,62.9401842 318.570723,64.3053023 C317.925874,67.7699006 315.615991,79.7400383 314.058089,88.4026284 L313.574686,91.1324998 C313.252355,92.8128135 313.144662,94.1773844 313.144662,95.1747743 C313.144662,95.8049831 313.252355,96.2774118 313.46718,96.6973078 C313.84345,97.3800492 314.595432,97.5898149 315.508298,97.5898149 C315.723683,97.5898149 315.884569,97.5898149 316.099394,97.5372823 L316.207087,98.1149585 C314.112028,98.9024004 312.392681,99.637492 310.995851,100.319686 C309.652774,100.949895 307.289137,101.947285 306.43021,102 L306,101.684804 C306.215012,99.217596 306.913613,95.8575157 307.665408,91.8148764" id="Fill-47" fill="#F8DA83"></path>
                </g>
            </g>
        </g>
    </g>
</svg>