<?xml version="1.0" encoding="UTF-8"?>
<svg width="711px" height="356px" viewBox="0 0 711 356" version="1.1" xmlns="http://www.w3.org/2000/svg" xmlns:xlink="http://www.w3.org/1999/xlink">
    <title>Group 2</title>
    <defs>
        <polygon id="path-1" points="0 0.146382547 41.423961 0.146382547 41.423961 26.7082127 0 26.7082127"></polygon>
        <polygon id="path-3" points="0.138681201 0.144764308 36.5943747 0.144764308 36.5943747 59.7427101 0.138681201 59.7427101"></polygon>
    </defs>
    <g id="Design" stroke="none" stroke-width="1" fill="none" fill-rule="evenodd">
        <g id="Artboard" transform="translate(-656.000000, -471.000000)">
            <g id="Group-2" transform="translate(656.000000, 471.000000)">
                <path d="M710.59,0 L711,0.410119508 L355.704394,356 L0,0 L710.59,0 Z" id="Combined-Shape" fill="#C09006"></path>
                <g id="tablet-logo" transform="translate(180.000000, 38.000000)">
                    <path d="M271.552976,61.4237294 L246.329201,39.9590932 C244.615474,38.5218704 242.712162,36.8925717 240.998435,35.2636786 C234.906506,39.0966784 232.812399,45.2295185 232.812399,50.7875506 C232.812399,61.998943 240.617853,69.4732722 251.373875,69.4732722 C258.607953,69.4732722 266.127518,66.9817615 271.552976,61.4237294 L271.552976,61.4237294 Z M285.545455,61.998943 L285.545455,73.0188679 L285.16447,73.0188679 L272.695326,62.3820807 C266.984381,68.6106546 258.512858,72.0605166 248.137418,72.0605166 C234.716114,72.0605166 224.531469,64.9693251 224.531469,53.4705287 C224.531469,44.7504442 230.528303,38.2340607 240.046477,34.3053273 C235.477882,29.6097099 231.765748,24.14802 231.765748,17.2484988 C231.765748,7.1869252 239.95118,0 249.94624,0 C259.464413,0 267.65045,6.42004129 267.65045,15.1407343 C267.65045,24.14802 259.464413,28.8436373 252.706415,30.8556681 L251.659362,29.8977224 C257.655995,27.1184021 261.36833,22.5193298 261.36833,15.8110732 C261.36833,7.28265892 256.513846,1.34148906 249.469958,1.34148906 C241.760002,1.34148906 238.142963,7.85787255 238.142963,13.6071693 C238.142963,21.4650419 245.18685,27.597882 249.94624,31.6223492 L276.502555,54.2368042 C278.216281,50.4038044 279.263536,45.7083899 279.263536,40.1507634 C279.263536,34.3053273 277.169228,30.4723276 276.122174,28.4598911 L280.786267,26.6395307 L281.166849,26.6395307 L281.166849,38.2340607 C281.166849,44.6547105 279.929404,50.4038044 277.54981,55.1951555 L285.545455,61.998943 Z" id="Fill-1" fill="#2F2314"></path>
                    <path d="M52.2850758,52.3972288 C50.4540568,47.6305428 49.0232812,44.2767912 47.8788198,41.8639056 C47.3063902,40.6871076 46.5627686,39.4516333 45.8758134,38.6273023 C45.1317942,37.7453172 44.5597623,37.4511177 43.9300699,37.2151856 L44.0447944,36.6267866 C45.0172685,36.6856674 47.0777365,36.7445482 48.9087555,36.7445482 C50.9117619,36.7445482 53.6015246,36.5683148 54.688922,36.509434 L54.688922,37.1569182 C54.0019668,37.3331517 53.315608,37.6273511 52.8004413,38.1568693 C52.2850758,38.6863875 52.0562233,39.3338718 52.0562233,40.1575894 C52.0562233,41.2170347 52.3423386,42.3934238 52.8573065,43.8646257 C53.7729154,46.3361877 54.8603129,49.1017447 55.8333834,51.5735111 C56.8633192,54.2799828 57.6077361,56.4573453 58.0077806,58.0458999 C61.3842997,50.7495889 63.3300432,45.8068739 63.3300432,42.0407524 C62.8723382,40.5106697 62.4140367,39.3338718 61.8418059,38.5101541 C61.4415626,37.9215506 60.8693319,37.3920324 60.1257103,37.1569182 L60.1823766,36.5683148 C61.3842997,36.6267866 63.3873061,36.7445482 64.76062,36.7445482 C66.2486585,36.7445482 67.9082866,36.6267866 69.3963251,36.5683148 L69.4531902,37.2151856 C68.7668315,37.3920324 68.3091265,37.5684704 67.7935621,37.9804314 C67.2213314,38.392188 66.8783509,39.2159057 66.8783509,40.0402368 C66.8783509,41.0990687 67.2785942,42.5113898 67.7366969,43.8646257 C68.5377802,46.1595453 69.5677159,48.866426 70.5978505,51.5735111 C71.6279851,54.2799828 72.3145427,56.2811118 72.7726454,58.0458999 C75.7483246,51.1024648 78.4949525,44.9829518 78.4949525,41.4523534 C78.4949525,40.3344363 78.2662988,39.4516333 77.6938693,38.6273023 C77.2361642,37.9804314 76.6066707,37.4511177 75.7483246,37.1569182 L75.8055874,36.5683148 C77.1216386,36.6267866 79.3534974,36.7445482 80.7274078,36.7445482 C82.2148498,36.7445482 83.9317408,36.6267866 85.3623176,36.5683148 L85.4195804,37.2151856 C84.5039715,37.7453172 83.7028883,38.5101541 82.7870805,39.686952 C81.5282923,41.3343874 80.2118435,43.9235065 78.1521708,48.7490733 L73.5164658,59.5171018 C72.8867734,60.752985 72.2004146,62.3419485 71.6854468,63.2830189 L71.1130172,63.224547 C69.9110941,59.2817831 68.2516648,55.2214621 67.1644662,52.2207909 C66.1911968,49.454825 65.2183251,47.0421438 64.5892292,44.8063094 C63.9595368,47.1010246 62.3573703,51.2202264 60.9265947,54.5157104 L58.751601,59.5171018 C58.1795691,60.6354279 57.4355499,62.3419485 56.920582,63.2830189 L56.3485501,63.224547 C55.0891654,59.2817831 53.4869989,55.5156616 52.2850758,52.3972288" id="Fill-3" fill="#2F2314"></path>
                    <path d="M90.8506711,25.4825059 C90.8506711,23.5788239 92.2269514,21.9056604 94.2606124,21.9056604 C95.7563976,21.9056604 96.7729163,23.0019262 96.7729163,24.2713816 C96.7729163,25.598166 95.8756946,26.4057826 94.7390475,27.0404101 C93.7819694,27.5595779 92.7652428,28.0210158 91.9278775,28.5979134 L91.6285957,28.4828546 C91.149745,27.6173077 90.8506711,26.5214428 90.8506711,25.4825059 M90.6715177,58.4256055 C91.6886599,56.925832 91.9877338,55.079479 91.9877338,49.0214525 C91.9877338,43.771644 91.7478928,42.4448596 91.5088831,41.2908639 C91.0903043,39.3865806 90.3123796,38.6946242 89.0566433,38.6946242 C88.6378567,38.6946242 88.2188623,38.752354 88.0395011,38.809683 L87.8601399,38.1754564 C88.8170101,37.7136176 90.4921565,37.0214607 91.4490267,36.3868332 C92.8849555,35.4635564 94.6791911,34.367491 95.2181061,34.367491 C95.5169722,34.367491 95.6961255,34.4829507 95.8162539,34.7136697 C96.0552636,35.1751076 96.0552636,36.0404541 96.0552636,37.5985588 C96.0552636,39.1558616 95.9355509,42.2714696 95.9355509,48.2138359 L95.9355509,49.5410212 C95.9355509,52.1368601 96.0552636,55.8870956 97.0719902,57.733649 C97.7302022,58.9451742 98.6872802,59.6950609 100.062937,60.2142287 L100.003081,60.8490566 C98.4482705,60.7911263 95.6362692,60.6756666 93.9617463,60.6756666 C92.3462484,60.6756666 89.7142318,60.7911263 88.2787186,60.8490566 L88.2188623,60.2142287 C89.116084,59.9257799 90.0135135,59.3488822 90.6715177,58.4256055" id="Fill-5" fill="#2F2314"></path>
                    <path d="M104.595182,59.0955304 C103.997632,57.985133 103.798448,56.1144343 103.798448,53.6599037 C103.798448,51.4971876 103.897954,47.230443 103.897954,44.0742989 C103.897954,42.1457247 103.897954,38.8143295 103.798448,36.7685828 C102.603175,36.7685828 101.208372,36.8266613 100.162615,36.9438339 L100.062937,36.2420172 C101.656578,35.4240434 103.10122,34.313443 104.246654,32.6186046 C105.292757,31.0988142 106.13933,29.17024 106.737226,26.7735849 L107.384442,26.8907574 C107.284764,28.7608469 107.185432,31.2157836 107.185432,33.729002 L107.185432,34.313443 C109.775163,34.313443 112.365413,34.313443 114.706294,34.2549583 C114.706294,35.1318229 114.556949,36.1841417 114.307927,36.8851461 C112.215722,36.7685828 109.675831,36.7685828 107.185432,36.7685828 L107.185432,44.7174278 C107.185432,49.3933623 107.235271,52.9582902 107.583799,54.8874736 C107.9325,56.8160479 108.729579,57.6344278 110.074024,57.6344278 C111.468654,57.6344278 112.863458,56.5825151 113.859721,55.2964605 L114.457098,55.9393863 C113.610698,57.1669562 112.464918,58.4524016 111.070288,59.5049234 C110.024185,60.3231003 108.579716,60.8490566 107.384442,60.8490566 C106.189169,60.8490566 105.192905,60.2646156 104.595182,59.0955304" id="Fill-7" fill="#2F2314"></path>
                    <path d="M131.163438,63.2830189 C127.898786,63.2830189 125.167723,62.1914987 123.208891,60.2382205 C120.834242,57.8248191 119.587413,54.3773879 119.587413,49.895927 C119.587413,42.8291921 124.33671,36.509434 131.163438,36.509434 C133.122682,36.509434 134.96271,36.8537778 136.565747,37.4859732 C138.762189,38.3477312 140.543227,39.6690136 140.543227,41.2781475 C140.543227,42.5419395 139.474604,43.6909501 138.109589,43.6909501 C136.684758,43.6909501 136.150138,42.6569204 134.725513,40.5884617 C133.479096,38.8076549 132.232267,37.8884064 130.926035,37.6009542 C127.423361,38.4054213 124.33671,42.4842494 124.33671,49.7238549 C124.33671,53.113596 125.286734,55.9288317 126.82975,57.7102374 C128.195385,59.3187724 130.273434,60.2382205 132.706866,60.2382205 C136.20954,60.2382205 139.000005,58.2847427 140.899435,55.7567596 L141.552448,56.216284 C139.830812,58.9738297 136.150138,63.2830189 131.163438,63.2830189" id="Fill-9" fill="#2F2314"></path>
                    <path d="M142.787777,57.9879282 C143.487686,56.5292985 143.604439,55.0149274 143.66241,53.7806272 C143.720989,52.5469118 143.779366,50.6396228 143.779366,48.6200716 L143.779366,43.9641113 C143.779366,39.0276904 143.779366,33.4742168 143.720989,30.108298 C143.66241,26.9667089 143.546063,25.3400756 143.02108,23.7693784 C142.612648,22.535663 141.562481,21.8059583 140.278808,21.8059583 C139.928752,21.8059583 139.579102,21.8622844 139.28722,21.9184155 L139.111888,21.3013629 C140.162461,20.8527036 142.320766,19.8427331 143.66241,19.001156 C144.946083,18.1595788 146.579609,17.0377358 147.04662,17.0377358 L147.571602,17.3181966 C147.68795,18.0479013 147.746326,20.1231939 147.746326,22.0302879 C147.746326,24.8350903 147.629979,32.5765085 147.629979,40.2616007 C151.42181,37.4571882 154.338603,35.2690486 158.014493,35.2690486 C161.456674,35.2690486 163.5564,37.4571882 163.965238,41.0468518 C164.198338,43.1227291 164.198338,45.4227411 164.256714,47.9470827 C164.315293,50.6396228 164.373062,53.331968 164.606973,54.9587962 C164.840276,56.5292985 165.073376,57.595595 165.715314,58.4927186 C166.356643,59.5026891 167.115537,59.8952172 168.398601,60.2318091 L168.34063,60.8490566 C166.531975,60.8490566 164.72332,60.6804683 162.623391,60.6804683 C160.756157,60.6804683 158.13084,60.7929255 156.847573,60.8490566 L156.789196,60.2318091 C158.072464,59.6147565 159.180805,58.5488497 159.648019,56.8097592 C160.231377,54.566463 160.347725,51.3124168 160.347725,48.4518731 C160.347725,45.9275315 160.347725,43.5154521 159.706395,41.3273126 C159.064457,39.1395628 157.255802,38.2424393 154.980541,38.2424393 C152.588527,38.2424393 149.788284,39.7566154 147.629979,41.6639044 L147.629979,46.9932433 C147.629979,51.8177918 147.804703,54.9024702 148.21354,56.4735571 C148.621364,58.0442542 149.729908,59.6147565 151.655518,60.2318091 L151.596939,60.8490566 C150.546975,60.8490566 147.27972,60.6804683 145.412689,60.6804683 C143.429107,60.6804683 140.629067,60.8490566 140.162461,60.8490566 L140.104084,60.2318091 C141.212425,59.8390861 142.204419,59.2222284 142.787777,57.9879282" id="Fill-11" fill="#2F2314"></path>
                    <path d="M175.588413,46.9086191 C179.209445,46.9663092 184.611704,46.7934385 187.401524,46.3916042 C187.045939,42.1399055 185.027104,37.9458969 181.643473,37.6586442 C178.556851,38.4629118 176.122617,41.7951624 175.588413,46.9086191 M183.958698,60.3528022 C187.639544,60.3528022 190.251571,58.2272523 192.150983,55.7567596 L192.804196,56.216284 C191.082576,58.859248 187.580142,63.2830189 182.29648,63.2830189 C180.040863,63.2830189 177.844236,62.7085135 176.063215,61.5018128 C172.738573,59.2610824 170.839161,55.354526 170.839161,49.9536171 C170.839161,42.8868822 175.529012,36.509434 182.237078,36.509434 C187.757935,36.509434 191.141978,41.162967 192.032179,46.4486954 C192.091581,46.7359481 192.150983,47.0232008 192.150983,47.1958717 C192.150983,47.4256339 192.032179,47.5979057 191.853974,47.7128866 L175.529012,48.1153198 L175.529012,49.20684 C175.529012,56.6756088 179.150456,60.3528022 183.958698,60.3528022" id="Fill-13" fill="#2F2314"></path>
                    <path d="M203.054106,62.1389216 C205.922054,61.9101419 208.36264,60.1365527 208.36264,57.5048905 C208.36264,56.3037474 208.057593,55.6170108 207.324972,54.8161825 C206.2271,53.6146418 204.274505,52.9285015 201.773291,51.8982972 C198.844291,50.6973529 197.135902,49.8392799 195.732772,48.5804947 C194.451321,47.3789541 193.597445,45.9490313 193.597445,44.0035094 C193.597445,41.6010245 194.695316,39.6559002 196.647912,38.3404666 C198.417353,37.138926 200.858151,36.509434 203.237473,36.509434 C206.409832,36.509434 209.216728,37.0814826 210.924905,37.6535312 C211.291004,39.0838515 211.229952,42.5165408 211.535211,44.804934 L210.924905,44.9190257 C209.094413,40.6855082 205.738687,37.8250663 202.322333,37.5962866 C199.881535,37.9395555 197.563264,39.6559002 197.563264,42.4590974 C197.563264,44.6330014 198.661348,45.663007 200.369525,46.6353704 C201.284665,47.1501744 202.749059,47.6649784 203.908618,48.1229353 C206.409832,49.0382529 208.545371,49.8959283 210.13208,51.2121569 C211.535211,52.3564529 212.328671,53.8434215 212.328671,55.7889434 C212.328671,57.905404 211.352479,59.7932838 209.643454,61.1093136 C207.996329,62.3677013 205.43364,63.2830189 202.322333,63.2830189 C199.210389,63.2830189 195.854451,62.7109702 194.085011,61.8528973 C193.474917,60.5945096 193.16987,57.2188662 192.804196,54.5874028 L193.413865,54.4729135 C195.122678,58.420208 199.332493,61.7382093 203.054106,62.1389216" id="Fill-15" fill="#2F2314"></path>
                    <g id="Group-19" transform="translate(0.000000, 85.188679)">
                        <mask id="mask-2" fill="white">
                            <use xlink:href="#path-1"></use>
                        </mask>
                        <g id="Clip-18"></g>
                        <path d="M8.34173408,15.9085193 C6.51361493,11.1797363 5.08530379,7.85210425 3.94245637,5.45850519 C3.37113191,4.29101462 2.62848952,3.06551462 1.94262226,2.24750047 C1.19997987,1.37249104 0.628655415,1.0806184 -3.97028809e-05,0.846552358 L0.114503108,0.262807075 C1.08543706,0.32122217 3.14264183,0.379637264 4.97076098,0.379637264 C6.97059509,0.379637264 9.65609795,0.204797642 10.7417732,0.146382547 L10.7417732,0.788542925 C10.055906,0.963585377 9.37063424,1.25545802 8.85648193,1.78078821 C8.34173408,2.3061184 8.11344251,2.9484816 8.11344251,3.76568443 C8.11344251,4.81675047 8.39890623,5.98383538 8.91305853,7.44340142 C9.82741588,9.89541557 10.9128926,12.6390995 11.8846207,15.0913165 C12.9127268,17.7763825 13.6559647,19.9365241 14.0555742,21.5125146 C17.4265473,14.2739108 19.3692092,9.37028821 19.3692092,5.6339533 C18.9122291,4.11597217 18.4548519,2.9484816 17.8833289,2.13107594 C17.4839179,1.54733066 16.912395,1.02200047 16.1699511,0.788542925 L16.2265277,0.204797642 C17.4265473,0.262807075 19.4263814,0.379637264 20.7975204,0.379637264 C22.2832022,0.379637264 23.9402019,0.262807075 25.4258837,0.204797642 L25.4826588,0.846552358 C24.7973871,1.02200047 24.3404069,1.19704292 23.8256591,1.60574575 C23.2543346,2.01424575 22.9118973,2.83144858 22.9118973,3.64925991 C22.9118973,4.69971745 23.3115068,6.1008684 23.7690825,7.44340142 C24.5686985,9.71996745 25.5972016,12.405642 26.6255063,15.0913165 C27.6540094,17.7763825 28.3394796,19.7616844 28.7968568,21.5125146 C31.7678234,14.6239958 34.5101014,8.55288255 34.5101014,5.05020802 C34.5101014,3.94113255 34.2818098,3.06551462 33.7102868,2.24750047 C33.2535052,1.60574575 32.6248101,1.0806184 31.7678234,0.788542925 L31.8249955,0.204797642 C33.1389624,0.262807075 35.3672866,0.379637264 36.7390211,0.379637264 C38.2241074,0.379637264 39.9382792,0.262807075 41.3665904,0.204797642 L41.423961,0.846552358 C40.5096037,1.37249104 39.7099877,2.13107594 38.7954318,3.29876934 C37.5388356,4.93337783 36.2242732,7.50181651 34.1678625,12.2892175 L29.5394992,22.9720807 C28.9108041,24.1981892 28.2255324,25.7745854 27.71138,26.7082127 L27.1398571,26.6502033 C25.9398375,22.7386231 24.2832348,18.7104156 23.1975595,15.7336797 C22.22603,12.9893873 21.2545005,10.5957882 20.626401,8.37743443 C19.9977058,10.6544061 18.3980768,14.7408259 16.9697656,18.0102458 L14.798018,22.9720807 C14.2268921,24.0817646 13.4840512,25.7745854 12.9698989,26.7082127 L12.398773,26.6502033 C11.1415812,22.7386231 9.54175365,19.002491 8.34173408,15.9085193" id="Fill-17" fill="#2F2314" mask="url(#mask-2)"></path>
                    </g>
                    <path d="M44.4802495,76.5955129 C44.4802495,74.691831 45.856322,73.0188679 47.8901908,73.0188679 C49.3857682,73.0188679 50.4022869,74.1149333 50.4022869,75.3843887 C50.4022869,76.7111731 49.5050652,77.5187897 48.3684181,78.1534172 C47.41134,78.672585 46.3946135,79.1340229 45.5572481,79.711121 L45.2581742,79.5960622 C44.7791156,78.7305153 44.4802495,77.6344499 44.4802495,76.5955129 M44.3008883,109.538813 C45.3180306,108.03904 45.6173123,106.192486 45.6173123,100.13466 C45.6173123,94.8846511 45.3774712,93.5578667 45.1382537,92.403871 C44.7198828,90.4997881 43.9417502,89.8076313 42.6860139,89.8076313 C42.2672273,89.8076313 41.8482329,89.8655616 41.6690795,89.9226901 L41.4895105,89.2884635 C42.4463807,88.8268251 44.1215271,88.1346682 45.0783973,87.4998403 C46.514534,86.576764 48.3085618,85.4804981 48.8474767,85.4804981 C49.1463428,85.4804981 49.325704,85.5961583 49.4456245,85.8268773 C49.6848421,86.2881147 49.6848421,87.1536616 49.6848421,88.7115659 C49.6848421,90.2690692 49.5649216,93.3844767 49.5649216,99.326843 L49.5649216,100.654229 C49.5649216,103.250068 49.6848421,107.000303 50.7015687,108.846656 C51.3595728,110.058181 52.3166509,110.808268 53.6923077,111.327436 L53.6324513,111.962264 C52.0776411,111.904133 49.2656398,111.788674 47.5911169,111.788674 C45.975619,111.788674 43.3436024,111.904133 41.9080893,111.962264 L41.8482329,111.327436 C42.7454546,111.038787 43.6428842,110.461889 44.3008883,109.538813" id="Fill-20" fill="#2F2314"></path>
                    <path d="M65.3499138,97.0144492 C67.923467,92.7525835 69.8983405,89.3306187 71.4546165,86.3297513 C69.3597575,86.3297513 66.9658707,86.3297513 64.9905813,86.5095364 C63.8537345,86.6296712 63.1352774,86.7493889 62.4172361,87.0497259 C60.7411825,88.2502397 58.7661011,90.5914084 57.509061,93.2327056 L56.9105892,93.112988 C57.0305747,92.1523266 57.1499363,90.531341 57.2098251,89.1508336 C57.2699218,87.7102588 57.3899073,86.149132 57.5691577,85.3688815 C58.3468798,85.2487466 59.5440312,85.1886792 60.2624883,85.1886792 C62.8959303,85.1886792 66.0679551,85.2487466 68.7011891,85.2487466 C71.5147132,85.2487466 74.9859739,85.2487466 77.2600833,85.1886792 L77.3800688,85.8490035 C74.7466268,89.4507535 71.6340748,94.373152 68.8211746,98.9958392 C66.3073022,103.137779 63.5542907,107.699773 61.7586676,110.881259 L65.828608,110.881259 C67.6841199,110.881259 69.7190901,110.701474 70.9162415,110.401346 C71.8139491,109.981291 72.8312262,109.320967 74.1481551,108.00011 C75.5245569,106.619602 76.8414858,104.69828 77.4994304,103.257705 L78.0979021,103.37784 C77.7986662,105.598665 77.3800688,109.681163 76.7215003,111.962264 C75.2850018,111.962264 70.9761302,111.901988 66.905566,111.901988 L61.3396543,111.901988 C59.7831703,111.901988 57.2699218,111.901988 56.1927559,111.962264 L56.1328671,111.361799 C59.1853224,107.099516 62.4172361,101.816922 65.3499138,97.0144492" id="Fill-22" fill="#2F2314"></path>
                    <path d="M97.1516693,106.780306 C97.038668,105.974326 96.9825596,104.995707 96.9825596,104.074301 C96.9825596,102.980456 97.038668,100.965206 97.038668,99.4680712 L94.1590947,100.159226 C88.5690578,101.483322 87.2705229,102.519553 87.2705229,104.938094 C87.2705229,107.701512 89.020671,109.141033 91.6746339,109.141033 C94.0460933,109.141033 95.8531344,108.162015 97.1516693,106.780306 M82.979021,105.283571 C82.979021,103.901262 83.3743296,102.692392 84.10825,102.174476 C86.197206,101.023019 92.2394446,99.6983227 97.038668,98.3164138 L97.038668,97.1073435 C97.038668,95.2651317 96.9825596,93.4223198 96.7561645,92.1560367 C96.3612483,89.7374961 95.1188217,88.2407615 92.4085543,88.2407615 C90.997018,88.2407615 89.5287848,88.8164902 88.5125571,89.5648575 C88.5125571,90.3132248 88.6816668,91.982798 88.6816668,92.7893783 C88.6816668,93.5377456 88.6255585,93.9982485 88.4560565,94.4013386 C88.173553,95.091893 87.5528302,95.6106089 86.5927108,95.6106089 C85.3502842,95.6106089 84.2775559,94.8046288 84.2775559,93.5953585 C84.2775559,92.1560367 85.6325915,90.7741278 87.8912458,88.9889287 C88.5690578,88.471013 89.4724803,87.7798585 90.4322073,87.1467169 C92.2394446,85.9376467 93.9895926,85.1886792 95.6836324,85.1886792 C97.6597832,85.1886792 99.1280163,86.225511 99.9751343,88.0677228 C100.483052,89.2193803 100.709055,90.4286506 100.822056,92.1560367 C100.878557,92.904204 100.878557,93.9408357 100.878557,94.6315901 C100.878557,96.7622664 100.765555,98.9499554 100.765555,100.677342 C100.765555,103.152895 100.822056,104.765055 101.273669,106.089551 C101.668978,107.298422 102.459595,107.816938 103.532127,107.816938 C103.98374,107.816938 104.379245,107.759325 104.774554,107.643899 L104.944056,108.162015 C104.153439,108.680531 102.911012,109.716962 101.894784,110.522742 C100.991166,111.213897 100.144244,111.846838 99.5231288,111.846838 C98.7892084,111.846838 97.8855897,109.947014 97.3774759,107.87415 C95.2320192,109.716962 92.6910577,111.962264 89.2462814,111.962264 C85.7455929,111.962264 82.979021,109.486511 82.979021,105.283571" id="Fill-24" fill="#2F2314"></path>
                    <path d="M110.374243,109.337192 C111.289383,107.704147 111.594642,105.545805 111.594642,100.704429 C111.594642,95.3961212 111.350647,93.3551192 111.106652,92.188398 C110.67929,90.0884216 109.64247,89.5635288 108.605014,89.5635288 C108.177652,89.5635288 107.811978,89.6220979 107.567559,89.6798564 L107.384615,89.038636 C108.361019,88.6300709 110.069408,87.8135485 110.923285,87.2886557 C112.632098,86.1805037 114.340275,85.1886792 114.889316,85.1886792 C115.011632,85.1886792 115.255415,85.2470457 115.316467,85.4219424 C115.621725,86.2382621 115.621725,88.6884373 115.621725,90.5547453 L115.621725,92.946554 C116.719809,91.0218796 118.489038,88.8049676 120.258478,87.1133537 C121.662033,85.7721411 122.699064,85.3633733 123.675468,85.3633733 C125.567012,85.3633733 126.909091,87.5219188 126.909091,89.1549636 C126.909091,90.2053572 126.116054,90.904944 124.895655,90.904944 C123.553153,90.904944 122.088971,90.3216848 120.136799,90.3216848 C119.770488,90.3216848 119.343338,90.3800512 119.038079,90.4969868 C117.939996,91.2549401 115.682353,94.1132751 115.621725,97.2630371 L115.621725,99.7709707 C115.621725,102.454409 115.682353,105.720904 116.475814,108.053738 C116.963804,109.454128 118.427986,110.912073 121.295934,111.262069 L121.23467,111.962264 C119.282074,111.962264 115.804457,111.786962 113.791233,111.786962 C111.777373,111.786962 109.825201,111.903695 107.811978,111.962264 L107.750926,111.320436 C108.605014,111.087375 109.825201,110.328611 110.374243,109.337192" id="Fill-26" fill="#2F2314"></path>
                    <path d="M144.531647,87.1417011 C144.175848,87.1417011 143.583262,87.1972635 143.227462,87.3080024 C139.909142,88.4186712 136.530903,92.3612849 136.530903,98.7470999 C136.530903,101.245478 137.064602,103.522185 138.486975,105.577028 C139.790542,107.464991 141.568302,108.963825 144.531647,109.241637 C146.427801,109.075143 148.67996,108.020229 150.576114,106.187442 C150.516814,105.076967 150.457926,103.41106 150.457926,101.523097 C150.457926,97.5253063 150.516814,95.3041617 150.516814,92.6944662 L150.516814,89.973839 C149.035141,88.3079323 146.9615,87.1417011 144.531647,87.1417011 M150.63562,107.520168 C148.383667,109.408517 144.946129,111.962264 142.101589,111.962264 C139.316555,111.962264 136.827197,110.685487 134.990343,108.57566 C132.975589,106.29876 131.79021,103.133441 131.79021,99.6353262 C131.79021,94.8602414 133.805169,91.8616094 135.34573,90.2514579 C137.656777,87.8632403 140.975715,86.14235 144.472142,86.14235 C146.9022,86.14235 148.917159,87.0303834 150.516814,87.974558 C150.516814,85.7536063 150.516814,83.0881556 150.457926,80.8672038 C150.339326,77.0357149 150.102333,75.1477516 149.450446,74.1484005 C148.67996,72.9821693 147.494787,72.9266069 145.953814,72.9266069 L145.776326,72.3156137 C147.198493,71.8716935 148.976459,70.9830813 150.161633,70.2057868 C151.880093,69.0395556 153.302466,68.1509434 153.895258,68.1509434 L154.369039,68.4285624 C154.428339,68.8732543 154.547145,70.2057868 154.547145,71.5385121 C154.547145,78.201946 154.428339,88.0858757 154.428339,96.9698755 L154.428339,98.6359751 C154.428339,102.13409 154.547145,104.688416 155.020926,106.243198 C155.317425,107.187179 155.791412,107.909104 157.569172,107.909104 C157.806166,107.909104 158.221059,107.853349 158.458258,107.797594 L158.636364,108.408587 C157.391684,108.908263 156.265605,109.519256 155.080226,110.185619 C154.250851,110.685487 152.117292,111.906702 151.584005,111.906702 L151.228206,111.7404 C150.991213,111.018668 150.754425,110.407868 150.63562,107.520168" id="Fill-28" fill="#2F2314"></path>
                    <path d="M168.886697,110.817977 C171.75401,110.589397 174.194808,108.815623 174.194808,106.18398 C174.194808,104.983045 173.889761,104.296114 173.157776,103.495292 C172.059268,102.29376 170.107096,101.607625 167.605247,100.577428 C164.676883,99.3764928 162.968706,98.5182275 161.56494,97.2594516 C160.284125,96.0579199 159.4294,94.6282065 159.4294,92.6826991 C159.4294,90.280232 160.527908,88.3353208 162.48008,87.0196983 C164.249521,85.8181666 166.690106,85.1886792 169.069641,85.1886792 C172.242636,85.1886792 175.048896,85.7609224 176.757709,86.332768 C177.123171,87.7630777 177.062544,91.1955427 177.367802,93.4841177 L176.757709,93.5982086 C174.927216,89.3647224 171.571278,86.5043018 168.1545,86.2755238 C165.713702,86.6189889 163.395432,88.3353208 163.395432,91.1382985 C163.395432,93.3121864 164.493939,94.3421843 166.202328,95.3145405 C167.117469,95.8293407 168.581863,96.3441409 169.740786,96.8018956 C172.242636,97.7176039 174.378175,98.5750742 175.964248,99.891293 C177.367802,101.035382 178.160839,102.522538 178.160839,104.468046 C178.160839,106.58449 177.184435,108.472157 175.476258,109.788376 C173.828497,111.046556 171.266444,111.962264 168.1545,111.962264 C165.042981,111.962264 161.687255,111.390021 159.917814,110.531954 C159.307721,109.273576 159.002674,105.897759 158.636364,103.266514 L159.246457,103.152025 C160.954846,107.099291 165.164661,110.417267 168.886697,110.817977" id="Fill-30" fill="#2F2314"></path>
                    <g id="Group-34" transform="translate(173.279720, 68.150943)">
                        <mask id="mask-4" fill="white">
                            <use xlink:href="#path-3"></use>
                        </mask>
                        <g id="Clip-33"></g>
                        <path d="M3.29405048,59.3331271 C1.9978785,58.9819863 0.138681201,57.9881033 0.138681201,55.9410011 C0.138681201,54.0111489 1.71597431,52.4316248 3.57575891,52.4316248 C5.32219453,52.4316248 5.88561138,54.0111489 6.22389641,55.6483837 C6.449224,56.7011966 6.78731326,57.9295798 7.35092588,58.6314551 C9.60459328,56.7011966 10.9003737,54.5959772 12.1403606,50.7941869 C13.5490985,46.4075682 14.2248855,42.0209496 15.4082958,32.8384544 L16.5917061,23.7734126 C15.1263916,23.7734126 13.3797603,23.8315296 12.083784,23.8900531 L12.0274032,23.1885843 C13.5490985,22.6035528 15.8027659,21.2000055 17.2111123,19.7377315 L17.5492016,17.2811682 C18.1126184,13.1867605 18.5072843,11.0232209 19.1272777,9.26853282 C20.0283923,6.75364921 21.2681835,4.53077334 23.4656658,2.77669486 C25.5503864,1.08012381 27.9170113,0.144764308 29.9457426,0.144764308 C31.5230358,0.144764308 32.7064461,0.437178458 33.8894648,0.963280078 C35.5799111,1.72367879 36.5943747,2.95185886 36.5943747,4.53077334 C36.5943747,6.57787559 35.1856368,7.86478234 33.4388097,7.86478234 C31.6354059,7.86478234 31.0721848,6.75364921 30.6215296,4.47265628 C30.3396254,2.95185886 30.0581128,1.60683505 29.7198278,1.25589743 C27.240637,2.77669486 25.719529,6.16882091 24.7050654,10.3211425 C23.916321,13.7136749 23.409285,17.1643245 23.0150106,20.2640364 C24.7050654,20.2640364 26.8465584,20.2640364 28.8747025,20.2055129 C28.7057557,21.2581226 28.3110899,22.8374434 27.8040538,23.8315296 C25.3814397,23.7734126 23.916321,23.7734126 22.5641597,23.7734126 L21.4371302,32.8384544 C20.3101007,42.0209496 19.6906946,47.3435374 16.9857847,52.548875 C14.7319215,56.934884 10.9569503,59.7427914 6.61836652,59.7427914 C5.54810942,59.7427914 4.42107995,59.625338 3.29405048,59.3331271" id="Fill-32" fill="#2F2314" mask="url(#mask-4)"></path>
                    </g>
                    <path d="M216.023534,89.9737126 C216.023534,88.4930974 215.234438,86.9546905 213.839026,86.0432838 C210.744202,88.3217015 208.742052,92.7083284 207.831946,97.0945596 C214.263827,95.4425484 216.023534,92.8791306 216.023534,89.9737126 M202.007013,109.455846 C200.793538,107.974439 200.125874,105.923626 200.125874,103.816208 C200.125874,102.562604 200.3076,100.967988 200.671896,99.6009774 C202.492108,92.3665262 209.530727,85.1886792 215.356081,85.1886792 C218.93579,85.1886792 222.090909,86.8976904 222.090909,89.176306 C222.090909,91.3977237 220.634781,93.2779329 215.174144,95.5561526 C213.050352,96.4677572 210.562475,97.2651638 207.650009,98.0629663 C207.407356,99.5437794 207.285924,100.910988 207.285924,102.221395 C207.285924,105.58222 208.863484,108.031439 211.715024,108.487044 C213.960669,108.487044 216.751282,106.892231 219.785391,102.791 L220.695497,103.417208 C217.843958,107.518835 212.625552,111.962264 207.710725,111.962264 C205.161922,111.962264 203.280993,110.993462 202.007013,109.455846" id="Fill-35" fill="#2F2314"></path>
                    <path d="M224.060116,110.822857 C222.95217,110.196055 222.090909,109.341648 222.090909,108.031439 C222.090909,106.493428 223.383121,105.069813 225.167421,105.069813 C226.767241,105.069813 227.566723,106.208626 228.489762,107.746835 C229.289886,109.113846 230.151147,110.538055 231.32023,111.050462 C233.289223,110.595253 234.642571,109.227846 234.642571,107.120033 C234.642571,106.208626 234.396527,105.411022 233.904012,104.613615 C233.166094,103.417208 231.935447,102.278395 230.704799,101.139186 C229.53593,99.9997796 228.182154,98.8035708 227.320893,97.4363618 C226.521197,96.1257571 225.90598,94.929944 225.90598,93.1639328 C225.90598,90.8853172 227.013071,88.9487018 228.858935,87.5242949 C230.704799,86.1002838 233.166094,85.1886792 235.996348,85.1886792 C238.58013,85.1886792 240.733602,85.5876794 242.148515,86.2714818 C243.256462,86.7840862 244.055944,87.5814928 244.055944,88.8343059 C244.055944,90.3157128 242.763732,91.7397238 241.102989,91.7397238 C239.379826,91.7397238 238.457001,90.4869108 237.349696,88.9487018 C236.488436,87.809295 235.811441,86.7840862 234.704136,86.1002838 C233.473488,86.7270862 232.489099,88.3788994 232.489099,90.3727128 C232.489099,91.6257238 232.796707,92.4801304 233.411924,93.391735 C234.150483,94.5311418 235.257788,95.4425484 236.488436,96.5247572 C237.964913,97.8347682 239.318689,99.031175 240.17995,100.455384 C240.856945,101.537593 241.287255,102.734 241.287255,104.215209 C241.287255,106.607428 240.118386,108.430638 238.210957,109.797649 C236.365093,111.10766 233.657968,111.962264 230.643235,111.962264 C228.366847,111.962264 225.659295,111.677264 224.060116,110.822857" id="Fill-37" fill="#2F2314"></path>
                    <path d="M245.124417,109.023901 C245.124417,108.006292 245.24277,106.819441 245.539682,105.294108 C245.955154,103.20313 246.845479,99.1912022 247.49848,95.7437399 C247.913333,93.6533514 248.329217,91.1669535 248.566335,89.5281376 C246.963832,89.5281376 245.361741,89.5842897 244.115327,89.6408344 L244.055944,88.9630829 C246.548772,87.8893218 248.803658,86.3633991 250.821427,84.554949 C253.076313,82.5774537 255.094493,80.1472078 256.459467,77.8867925 L257.230614,78.056623 C256.755967,80.2039489 256.043789,83.7639116 255.628524,86.1376128 C258.477029,86.1376128 262.15627,86.1376128 263.58042,86.081068 C263.402478,87.2109812 262.928037,88.7932523 262.452977,89.5842897 C260.850886,89.5842897 257.883616,89.5281376 255.035111,89.5281376 L253.729108,96.3655357 C253.076313,99.8128016 252.42393,103.881471 252.42393,105.802618 C252.42393,107.384692 252.838989,108.176319 253.729108,108.402105 C255.747083,107.66722 257.824233,105.463349 259.66406,103.259675 L260.554179,103.881471 C259.13003,105.802618 257.349586,107.780506 255.272435,109.306428 C253.135695,110.888503 250.524514,111.962264 248.329217,111.962264 C246.252066,111.962264 245.124417,110.718672 245.124417,109.023901" id="Fill-39" fill="#2F2314"></path>
                    <path d="M271.572469,78.1551465 C271.572469,75.2200181 273.143766,73.0188679 275.76229,73.0188679 C277.176366,73.0188679 278.223776,74.2042535 278.223776,75.6718177 C278.223776,77.5907892 277.228773,78.6630288 275.50062,79.4530897 C274.243765,80.017447 273.196173,80.5820004 272.358027,81.1463576 L271.991178,81.0332116 C271.729326,80.2998217 271.572469,79.3966148 271.572469,78.1551465 M268.325244,100.053698 C268.849131,96.7801126 269.058577,94.8046661 269.058577,93.5063307 C269.058577,92.8858907 269.005988,92.3213373 268.901174,91.8130628 C268.639322,90.7408232 267.958578,90.176466 266.963575,90.176466 C266.649134,90.176466 266.230425,90.2329409 266.07284,90.2894159 L266.020979,89.6685836 C267.329877,89.0475553 269.477286,88.0317907 271.310617,86.7903224 C272.463022,85.9998693 275.029322,84.6454511 275.657477,84.6454511 C275.814879,84.6454511 276.076368,84.758401 276.076368,84.9841046 C276.076368,86.0563442 275.76229,87.7496121 275.50062,89.329734 C274.871919,92.9984484 274.295626,96.6104917 273.719878,100.222731 C273.458025,102.028949 273.248216,103.552792 273.248216,104.624835 C273.248216,105.302339 273.35303,105.810221 273.562475,106.261628 C273.929323,106.995607 274.767469,107.22131 275.657477,107.22131 C275.866922,107.22131 276.024325,107.22131 276.233588,107.164639 L276.338038,107.785667 C274.295626,108.632399 272.619879,109.42246 271.258028,110.15585 C269.948584,110.833354 267.644137,111.905593 266.806172,111.962264 L266.387281,111.623611 C266.596727,108.857907 267.539687,104.963685 268.325244,100.053698" id="Fill-41" fill="#2F2314"></path>
                    <path d="M284.428019,92.4099492 C284.028609,90.9104231 283.002546,89.910353 281.919029,89.910353 C281.519619,89.910353 281.063745,89.9659339 280.778651,90.0215148 L280.664336,89.410511 C281.747853,88.8548951 283.914888,87.6882754 285.625257,86.6885913 C286.651914,86.0775875 287.564455,85.7442952 288.248364,85.7442952 C289.046589,85.7442952 289.503057,86.0775875 289.731093,86.9109149 C291.042449,91.6879766 291.612836,100.186642 292.012048,107.240976 C293.608497,105.907807 295.148285,104.463476 296.744933,102.408527 C298.341383,100.40858 299.709995,98.2424688 300.565279,96.0205842 C300.508022,94.7431886 299.709995,92.9097912 299.196666,91.6323957 C298.683536,90.4101951 298.227464,89.2991562 298.227464,88.1886964 C298.227464,86.4666537 299.481761,85.1886792 301.477819,85.1886792 C303.701516,85.1886792 305.06993,86.6885913 305.06993,89.2441543 C305.06993,93.7985065 298.626478,103.296856 292.240083,108.573953 C290.700098,109.851348 288.704436,111.184325 286.822694,111.962264 L286.138784,111.573391 C285.853491,101.741749 285.283302,95.7428727 284.428019,92.4099492" id="Fill-43" fill="#2F2314"></path>
                    <path d="M317.326984,104.158011 C319.898342,101.195593 322.409248,97.2651638 323.186389,93.1639328 L324.023773,88.8913059 C322.648353,88.6067016 320.854343,87.6384928 318.582749,87.6384928 C317.984677,87.6384928 317.506468,87.6954929 317.207744,87.7520971 C315.11501,90.7715151 313.201345,96.2969551 312.364376,101.309791 C312.125272,102.62 312.065444,103.75901 312.065444,104.898417 C312.065444,106.322626 312.245136,107.576231 312.663308,108.430638 C313.919073,107.576231 315.652839,106.037824 317.326984,104.158011 M305.06993,105.753022 C305.06993,103.588406 305.36907,101.708791 305.787243,100.341186 C307.162664,95.5561526 310.33147,91.7397238 312.902413,89.6889104 C315.174838,87.923493 318.821646,85.1886792 322.708181,85.1886792 C325.398779,85.1886792 327.730617,85.9866796 330.241523,85.9866796 C330.780183,85.9866796 331.378047,85.9294817 331.736392,85.8152837 L331.916084,86.0432838 C330.540455,89.176306 329.584246,92.5941305 328.866518,96.2969551 L328.448345,98.5185706 C328.029757,100.625988 327.670789,102.904604 327.670789,104.271615 C327.670789,105.126219 327.790445,105.63922 328.029757,106.094824 C328.448345,106.949429 329.404762,107.177033 330.421215,107.177033 C330.660527,107.177033 330.839595,107.177033 331.079115,107.120033 L331.198356,107.746835 C328.866518,108.829044 327.012888,109.398648 325.458814,110.139055 C324.262878,110.822857 321.572279,111.905066 320.615447,111.962264 C320.37655,111.962264 320.137238,111.791264 320.137238,111.620264 C320.555619,107.063033 321.452416,102.904604 321.811384,100.28478 C319.658822,103.246604 317.147708,106.322626 313.799417,109.285044 C312.065444,110.765857 310.092574,111.905066 308.298773,111.905066 C305.966727,111.905066 305.06993,108.25944 305.06993,105.753022" id="Fill-45" fill="#2F2314"></path>
                    <path d="M338.360483,100.747647 L339.822849,91.3829857 C340.17587,89.1285339 340.579173,86.642913 340.881913,84.3308195 C341.436761,80.3999393 341.890345,77.2204092 341.890345,75.0242016 C341.890345,73.2318873 341.386304,71.5556598 339.721936,71.5556598 C339.419546,71.5556598 339.06635,71.6135023 338.864874,71.6715456 L338.763785,70.9774355 C340.0245,70.2835263 342.84832,69.1274796 344.562794,67.9139921 C345.672315,67.1047996 347.991743,65.7169811 348.597048,65.7169811 L349,66.0638353 C348.949543,67.3357679 348.798524,68.9543538 348.597048,70.4574555 C347.991743,74.272249 345.82351,87.4523063 344.361143,96.9904951 L343.907384,99.9962969 C343.604819,101.846454 343.503731,103.348953 343.503731,104.447157 C343.503731,105.141066 343.604819,105.661247 343.80647,106.123586 C344.159667,106.875337 344.865534,107.106306 345.722421,107.106306 C345.924598,107.106306 346.075617,107.106306 346.277269,107.048463 L346.378357,107.68453 C344.411775,108.551565 342.797863,109.360958 341.486692,110.112107 C340.225976,110.806017 338.007286,111.904221 337.201031,111.962264 L336.797203,111.615209 C336.999029,108.89862 337.65479,105.198909 338.360483,100.747647" id="Fill-47" fill="#2F2314"></path>
                </g>
            </g>
        </g>
    </g>
</svg>